<?xml version="1.0" standalone="no"?>
<!DOCTYPE svg PUBLIC "-//W3C//DTD SVG 20010904//EN"
 "http://www.w3.org/TR/2001/REC-SVG-20010904/DTD/svg10.dtd">
<svg version="1.0" xmlns="http://www.w3.org/2000/svg"
 width="1024.000000pt" height="1024.000000pt" viewBox="0 0 1024.000000 1024.000000"
 preserveAspectRatio="xMidYMid meet">
<metadata>
Created by potrace 1.14, written by Peter Selinger 2001-2017
</metadata>
<g transform="translate(0.000000,1024.000000) scale(0.100000,-0.100000)"
fill="#000000" stroke="none">
<path d="M0 5120 l0 -5120 5120 0 5120 0 0 5120 0 5120 -5120 0 -5120 0 0
-5120z m4496 2055 c106 -396 214 -812 239 -925 26 -113 86 -365 135 -560 90
-363 144 -600 180 -795 31 -169 25 -155 69 -155 l39 0 12 73 c32 197 109 552
176 812 41 160 95 376 120 480 103 429 172 708 306 1238 l141 557 944 0 943 0
0 -2780 0 -2780 -696 0 -696 0 6 1203 c6 1137 15 1576 36 1922 17 274 18 250
-11 253 l-25 3 -353 -1348 c-195 -741 -356 -1354 -358 -1360 -4 -10 -133 -13
-598 -13 -327 0 -596 4 -599 8 -3 6 -626 2423 -687 2665 -10 42 -14 47 -40 47
-35 0 -34 22 -14 -297 28 -449 35 -830 35 -1955 l0 -1128 -690 0 -690 0 0
2780 0 2780 942 -2 941 -3 193 -720z"/>
</g>
</svg>
