<svg viewBox="0 0 97 12" fill="none" xmlns="http://www.w3.org/2000/svg">
<path d="M18.6369 11.8036C18.6369 10.2954 18.6369 8.80449 18.6369 7.30363C17.4827 7.30363 16.3513 7.30363 15.1971 7.30363C15.1971 8.80339 15.1971 10.2943 15.1971 11.7999C14.2436 11.7999 13.3127 11.7999 12.368 11.7999C12.368 7.92261 12.368 4.05084 12.368 0.165382C13.3044 0.165382 14.2353 0.165382 15.1887 0.165382C15.1887 1.63001 15.1887 3.09242 15.1887 4.57072C16.3419 4.57072 17.4729 4.57072 18.6275 4.57072C18.6275 3.10831 18.6275 1.64702 18.6275 0.168709C19.582 0.168709 20.5133 0.168709 21.4617 0.168709C21.4617 4.03974 21.4617 7.91633 21.4617 11.804C20.526 11.8036 19.6006 11.8036 18.6369 11.8036Z" fill="#121212"/>
<path d="M83.7469 5.86827C83.7469 3.94366 83.7469 2.06157 83.7469 0.165431C84.6451 0.165431 85.5251 0.165431 86.4276 0.165431C86.4276 0.258611 86.4276 0.344026 86.4276 0.429811C86.4276 4.13002 86.4283 7.83059 86.425 11.5308C86.425 11.6891 86.4862 11.8935 86.297 11.9782C86.1086 12.0625 86.0002 11.8824 85.8841 11.7748C83.9296 9.96116 81.9772 8.14526 80.0241 6.3301C79.9633 6.27352 79.8986 6.22102 79.8047 6.14004C79.8047 8.04727 79.8047 9.91457 79.8047 11.7981C78.904 11.7981 78.024 11.7981 77.1168 11.7981C77.1168 11.7146 77.1168 11.6373 77.1168 11.56C77.1168 7.85241 77.1161 4.14481 77.119 0.437206C77.119 0.278578 77.0629 0.0511748 77.255 0.00384528C77.3649 -0.0231473 77.5395 0.097395 77.6454 0.195752C79.6167 2.02274 81.5817 3.85639 83.5487 5.68893C83.6014 5.73737 83.6553 5.78507 83.7469 5.86827Z" fill="#121212"/>
<path d="M88.755 0.161771C91.1785 0.161771 93.5819 0.161771 95.9977 0.161771C95.9977 1.05401 95.9977 1.93663 95.9977 2.84661C94.5343 2.84661 93.0686 2.84661 91.5932 2.84661C91.5932 3.45857 91.5932 4.04279 91.5932 4.65364C92.8187 4.65364 94.0352 4.65364 95.2629 4.65364C95.2629 5.5174 95.2629 6.35454 95.2629 7.20943C94.0414 7.20943 92.8307 7.20943 91.6015 7.20943C91.6015 7.84579 91.6015 8.46477 91.6015 9.10853C93.1301 9.10853 94.6609 9.10853 96.2044 9.10853C96.2044 10.0152 96.2044 10.8974 96.2044 11.7974C93.7274 11.7974 91.2483 11.7974 88.7554 11.7974C88.755 7.92159 88.755 4.04982 88.755 0.161771Z" fill="#121212"/>
<path d="M50.128 9.10853C50.128 10.0255 50.128 10.9078 50.128 11.8022C47.6416 11.8022 45.1676 11.8022 42.6757 11.8022C42.6757 7.92862 42.6757 4.05759 42.6757 0.169173C45.0755 0.169173 47.4844 0.169173 49.9097 0.169173C49.9097 1.05142 49.9097 1.93922 49.9097 2.84403C48.4452 2.84403 46.9846 2.84403 45.508 2.84403C45.508 3.45081 45.508 4.04058 45.508 4.6566C46.7285 4.6566 47.945 4.6566 49.1727 4.6566C49.1727 5.51482 49.1727 6.34678 49.1727 7.20426C47.9555 7.20426 46.7391 7.20426 45.5077 7.20426C45.5077 7.84838 45.5077 8.46774 45.5077 9.10853C47.041 9.10853 48.5728 9.10853 50.128 9.10853Z" fill="#121212"/>
<path d="M10.5494 2.56327C9.82988 3.1157 9.13034 3.65259 8.4177 4.19984C8.3424 4.08447 8.27583 3.9765 8.20381 3.87223C7.63013 3.04507 6.82437 2.71598 5.86073 2.82211C4.9553 2.92194 4.3809 3.50062 4.05277 4.32741C3.6177 5.42338 3.61115 6.53932 4.06041 7.63086C4.43546 8.54232 5.09426 9.11952 6.10446 9.16943C7.16959 9.22194 7.96371 8.76639 8.4639 7.80021C8.50356 7.72404 8.54102 7.64676 8.58831 7.5521C9.31514 8.08049 10.0332 8.60259 10.7604 9.13098C10.7437 9.17868 10.7349 9.21972 10.716 9.25559C9.79641 11.0223 8.36641 11.9182 6.38748 11.9663C3.77012 12.0299 1.61585 10.163 1.02908 7.54655C0.59255 5.59938 0.880295 3.76241 2.05274 2.12769C4.0957 -0.720582 7.75309 -0.387057 9.50503 1.25321C9.91136 1.63332 10.2639 2.0567 10.5494 2.56327Z" fill="#121212"/>
<path d="M70.3648 11.861C70.2786 11.8658 70.2172 11.8721 70.1553 11.8721C69.3132 11.8728 68.4707 11.8691 67.6285 11.8758C67.4874 11.8769 67.4139 11.8425 67.3637 11.6979C67.2404 11.3433 67.0912 10.998 66.961 10.6456C66.9181 10.5291 66.8646 10.4755 66.7318 10.4763C65.6754 10.4822 64.619 10.4814 63.5626 10.4766C63.4437 10.4763 63.3866 10.5121 63.3465 10.6279C63.2189 10.9965 63.0832 11.3629 62.9384 11.7249C62.9136 11.7871 62.8282 11.8658 62.77 11.8666C61.9064 11.8747 61.0428 11.871 60.1788 11.8691C60.1657 11.8691 60.153 11.8592 60.1184 11.8451C60.2566 11.5134 60.3934 11.1814 60.5331 10.8505C62.0133 7.35066 63.4942 3.85086 64.9748 0.351438C64.9944 0.304848 65.0101 0.256039 65.0341 0.212038C65.1483 0.00275244 65.3262 -0.0024243 65.4452 0.200575C65.4815 0.262695 65.5085 0.330361 65.5365 0.396918C67.1142 4.13928 68.6915 7.88164 70.2688 11.624C70.2986 11.6961 70.3274 11.7689 70.3648 11.861ZM64.2884 8.11828C64.8609 8.11828 65.4062 8.11828 65.9763 8.11828C65.6954 7.3795 65.4201 6.65551 65.1261 5.88196C64.838 6.65107 64.5666 7.3758 64.2884 8.11828Z" fill="#121212"/>
<path d="M33.1971 11.8144C32.2436 11.8144 31.316 11.8169 30.3887 11.8081C30.3298 11.8073 30.244 11.7286 30.2178 11.6657C30.0701 11.3126 29.9322 10.9547 29.8005 10.5949C29.755 10.4706 29.6965 10.4163 29.5553 10.4174C28.5058 10.4241 27.456 10.4241 26.4065 10.4174C26.2654 10.4167 26.2097 10.4706 26.1664 10.5975C26.0453 10.9536 25.9096 11.3041 25.7826 11.658C25.7488 11.7519 25.7157 11.8181 25.5931 11.8173C24.7222 11.8118 23.8517 11.8144 22.9452 11.8144C22.9765 11.7304 22.9976 11.6661 23.0241 11.604C24.2111 8.79489 25.3992 5.98618 26.5826 3.17562C26.635 3.05138 26.6943 2.99961 26.8318 3.00072C27.6601 3.00701 28.4884 3.00553 29.3167 3.0022C29.4353 3.00183 29.508 3.0266 29.5604 3.15195C30.7572 6.00282 31.9592 8.85146 33.16 11.7008C33.1709 11.7264 33.1774 11.7537 33.1971 11.8144ZM28.814 8.06387C28.5266 7.30955 28.2516 6.58852 27.958 5.81904C27.6677 6.5985 27.3978 7.32176 27.1213 8.06387C27.7004 8.06387 28.2334 8.06387 28.814 8.06387Z" fill="#121212"/>
<path d="M35.3426 2.84773C34.4248 2.84773 33.5416 2.84773 32.6456 2.84773C32.6456 1.95105 32.6456 1.0688 32.6456 0.169173C35.3772 0.169173 38.1128 0.169173 40.8604 0.169173C40.8604 1.05475 40.8604 1.937 40.8604 2.84551C39.9738 2.84551 39.0862 2.84551 38.1764 2.84551C38.1764 5.8428 38.1764 8.8142 38.1764 11.8004C37.2237 11.8004 36.2932 11.8004 35.3426 11.8004C35.3426 8.82086 35.3426 5.84908 35.3426 2.84773Z" fill="#121212"/>
<path d="M58.677 11.8029C56.4459 11.8029 54.2367 11.8029 52.0159 11.8029C52.0159 7.92113 52.0159 4.05046 52.0159 0.165743C52.9482 0.165743 53.8791 0.165743 54.8311 0.165743C54.8311 3.13752 54.8311 6.10781 54.8311 9.10843C56.124 9.10843 57.3954 9.10843 58.677 9.10843C58.677 10.021 58.677 10.9029 58.677 11.8029Z" fill="#121212"/>
<path d="M74.7347 0.163576C74.7347 4.04496 74.7347 7.91452 74.7347 11.7992C73.795 11.7992 72.8645 11.7992 71.9191 11.7992C71.9191 7.92044 71.9191 4.04423 71.9191 0.163576C72.8609 0.163576 73.7925 0.163576 74.7347 0.163576Z" fill="#121212"/>
<path d="M29.3602 2.74706C28.5017 2.74706 27.6494 2.74706 26.7705 2.74706C26.9211 2.38617 27.0637 2.04081 27.2092 1.69693C27.4198 1.19776 27.6272 0.696729 27.8491 0.202727C27.888 0.115833 27.9884 0.00675318 28.0655 0.00194627C28.1398 -0.00249087 28.258 0.098824 28.294 0.18202C28.6541 1.00992 29.0015 1.84336 29.3519 2.67569C29.3595 2.69381 29.3569 2.71637 29.3602 2.74706Z" fill="#121212"/>
</svg>
