<svg viewBox="0 0 54 20" fill="none" xmlns="http://www.w3.org/2000/svg">
<path d="M8.74464 20H10.377V10.4307H8.74464V20Z" fill="#121212"/>
<path d="M36.8991 7.01682L34.4808 0.0651226H32.285V9.64039H33.8474V2.60101L36.3098 9.64039H38.462V0.0651226H36.8991V7.01682Z" fill="#121212"/>
<path d="M26.8546 8.13881C25.0986 8.13881 23.6702 6.66286 23.6702 4.84855C23.6702 3.0344 25.0984 1.55828 26.8546 1.55828C28.61 1.55828 30.0387 3.03423 30.0387 4.84855C30.0387 6.66286 28.6102 8.13881 26.8546 8.13881ZM26.8546 0C24.1895 0 22.0213 2.17493 22.0213 4.84855C22.0213 7.52216 24.1895 9.69743 26.8546 9.69743C29.5196 9.69743 31.6875 7.52216 31.6875 4.84855C31.6875 2.17477 29.5198 0 26.8546 0Z" fill="#121212"/>
<path d="M2.80846 9.64039H4.44093V1.60047H6.4317V0.0687995H0.818359V1.60047H2.80846V9.64039Z" fill="#121212"/>
<path d="M10.4818 8.13881C8.72572 8.13881 7.29741 6.66286 7.29741 4.84855C7.29741 3.0344 8.72572 1.55828 10.4818 1.55828C12.2374 1.55828 13.6657 3.03423 13.6657 4.84855C13.6657 6.66286 12.2372 8.13881 10.4818 8.13881ZM15.3147 4.84855C15.3147 2.17493 13.1471 0 10.4818 0C7.81666 0 5.64808 2.17493 5.64808 4.84855C5.64808 7.52216 7.81666 9.69743 10.4818 9.69743C13.1471 9.69726 15.3147 7.52216 15.3147 4.84855Z" fill="#121212"/>
<path d="M44.9175 0.0687995H39.3047V1.60047H41.2946V9.64039H42.9274V1.60047H44.9175V0.0687995Z" fill="#121212"/>
<path d="M48.9678 8.13881C47.2117 8.13881 45.7832 6.66286 45.7832 4.84855C45.7832 3.0344 47.2117 1.55828 48.9678 1.55828C50.723 1.55828 52.1517 3.03423 52.1517 4.84855C52.1517 6.66286 50.7232 8.13881 48.9678 8.13881ZM48.9678 0C46.3026 0 44.1344 2.17493 44.1344 4.84855C44.1344 7.52216 46.3026 9.69743 48.9678 9.69743C51.6327 9.69743 53.8008 7.52216 53.8008 4.84855C53.8008 2.17477 51.6327 0 48.9678 0Z" fill="#121212"/>
<path d="M11.392 20H13.0253V15.8481H16.5438V14.3163H13.0253V11.9611H16.6515V10.4294H11.392V20Z" fill="#121212"/>
<path d="M17.5351 4.11103V1.6051H18.7906C19.6204 1.6051 20.0866 2.13256 20.0866 2.8282C20.0866 3.52333 19.6101 4.11087 18.7906 4.11087L17.5351 4.11103ZM21.0087 9.63949H22.8789L20.4034 5.1775C21.2272 4.72233 21.7339 3.81953 21.7339 2.82836C21.7339 1.17286 20.4262 0.0643872 18.8983 0.0643872H15.9021V9.64033H17.5349V5.6402H18.9345L21.0087 9.63949Z" fill="#121212"/>
<path d="M4.44023 10.4311H2.80759V20H7.93854V18.468H4.44023V10.4311Z" fill="#121212"/>
<path d="M17.5391 20H23.2914V18.468H19.1718V15.8484H23.0015V14.3169H19.1718V11.9619H23.2914V10.4311H17.5391V20Z" fill="#121212"/>
</svg>
