<svg viewBox="0 0 74 20" fill="none" xmlns="http://www.w3.org/2000/svg">
<path fill-rule="evenodd" clip-rule="evenodd" d="M30.5061 4.1923C30.5061 4.95698 30.1408 5.35137 29.5796 5.35137C29.0433 5.35137 28.6534 4.95698 28.6534 4.1923C28.6534 3.42762 29.0433 3.00865 29.5796 3.00865C30.1408 3.00865 30.5061 3.42762 30.5061 4.1923ZM36.5022 4.1923C36.5022 4.95698 36.1364 5.35137 35.5756 5.35137C35.0152 5.35137 34.6494 4.95698 34.6494 4.1923C34.6494 3.42762 35.0152 3.00865 35.5756 3.00865C36.1368 3.00865 36.5022 3.42762 36.5022 4.1923ZM22.8282 4.1923C22.8282 4.95698 23.1936 5.37595 23.754 5.37595C24.3394 5.37595 24.6806 4.95698 24.6806 4.1923C24.6806 3.42762 24.3394 3.00865 23.7544 3.00865C23.1936 3.00865 22.8286 3.42762 22.8286 4.1923H22.8282ZM45.2038 1.70168C45.1792 1.94825 44.9597 2.09607 44.6917 2.14565V2.86033C45.7887 2.73743 46.1786 1.99741 46.1786 1.23273C46.1786 0.518037 45.8129 0.0982427 45.2766 0.0982427C44.74 0.0982427 44.4234 0.443878 44.4234 0.887839C44.4235 1.40563 44.7893 1.70168 45.2038 1.70168ZM45.4962 10.0125C46.9586 10.0125 47.641 10.9246 47.641 12.1579H43.2294C43.5219 10.6781 44.2772 10.0125 45.4962 10.0125ZM48.1039 6.73274C49.8346 6.73274 50.5166 5.94315 50.5166 5.03098C50.5166 3.05773 47.641 3.72367 47.641 3.00816C47.641 2.86075 47.7873 2.76201 48.2018 2.76201C48.3965 2.76201 48.6156 2.78659 48.8352 2.86033C48.8597 3.25513 49.2255 3.45212 49.5663 3.45212C49.9321 3.45212 50.2733 3.25555 50.2733 2.73743C50.2733 2.04649 49.3471 1.65211 48.1769 1.65211C46.6904 1.65211 45.8371 2.31805 45.8371 3.25513C45.8371 5.35128 48.7139 4.63618 48.7139 5.3267C48.7139 5.4991 48.5676 5.59784 47.9336 5.59784C47.696 5.5976 47.4591 5.57293 47.2266 5.5241C47.2266 5.10472 46.91 4.809 46.4713 4.809C45.9838 4.809 45.7159 5.1293 45.7159 5.57326C45.7159 6.26379 46.52 6.73233 48.104 6.73233L48.1039 6.73274ZM40.158 8.4341C41.3767 8.4341 42.0832 7.52159 42.5465 6.36294L43.8877 2.90991H44.3747V1.77543H41.7912V2.90991H42.1807L41.6449 4.70992H41.5958L40.8646 2.90991H41.2796V1.77543H38.574V2.90991H38.9152L40.743 6.60909C40.6701 6.88065 40.5238 7.05305 40.4018 7.12721C40.3043 6.92939 40.0606 6.75699 39.7682 6.75699C39.3053 6.75699 39.0124 7.10263 39.0124 7.54659C39.0123 8.06421 39.4515 8.4341 40.158 8.4341ZM20.293 6.60909V5.37586H19.6352V1.33188H20.1956V2.24397H21.5363V0H15.7831V2.24439H17.1242V1.33147H17.6846V5.37545H17.0268V6.60867H20.2927L20.293 6.60909ZM26.5087 4.1923C26.5087 5.86949 25.4359 6.73283 23.7544 6.73283C22.097 6.73283 21.0243 5.8449 21.0243 4.1923C21.0243 2.51553 22.097 1.65219 23.7544 1.65219C25.4359 1.65219 26.5087 2.51553 26.5087 4.1923ZM6.03408 10.6781V4.90732H7.98387C9.51994 4.90732 10.5436 5.74567 10.5436 7.76849C10.5436 9.7409 9.54411 10.678 7.98428 10.678H6.0345L6.03408 10.6781ZM23.3152 13.6376C23.3152 15.7833 22.3895 16.8928 21.0001 16.8928C19.6107 16.8928 18.6845 15.7829 18.6845 13.6376C18.6845 11.5164 19.6107 10.4069 21.0001 10.4069C22.3895 10.4069 23.3152 11.5168 23.3152 13.6376ZM38.8423 6.6095V5.47502H38.2083V1.77543H36.453V2.2198H36.4042C36.1364 1.85 35.6247 1.6526 35.0398 1.6526C33.6258 1.6526 32.8458 2.63885 32.8458 4.19272C32.8458 5.77116 33.6503 6.73324 34.9906 6.73324C35.5518 6.73324 36.0384 6.56001 36.4042 6.16563H36.4534V6.60959C36.4534 6.6095 38.8423 6.6095 38.8423 6.6095ZM30.3836 2.21897C30.1158 1.84917 29.6287 1.65177 29.0679 1.65177C27.6294 1.65177 26.8498 2.63802 26.8498 4.19188C26.8498 5.77033 27.6543 6.73241 29.0187 6.73241C29.58 6.73241 30.0915 6.55918 30.4331 6.1648H30.4815V6.60876H32.7483V5.47419H32.2117V0H29.8962V1.13448H30.4329V2.2198H30.3837L30.3836 2.21897ZM37.2575 7.34877C36.1364 7.34877 35.1127 7.86648 34.3328 9.00055H34.2353V7.62025H29.1408V10.1595H30.457V17.1647H29.19V19.7048H36.4292V17.1647H34.3328V12.9961C34.3328 12.0344 34.6256 11.0724 35.7713 10.7763C36.088 11.2703 36.7217 11.6155 37.5262 11.6155C38.5744 11.6155 39.4276 10.8758 39.4276 9.44484C39.4276 8.16295 38.4769 7.34911 37.2578 7.34911L37.2575 7.34877ZM65.8483 7.61992H67.1648V4.1673L71.0399 3.18106V7.61983H73.4292V10.6039H71.0403V15.6104C71.0403 16.4729 71.284 16.8678 72.0881 16.8678C72.4051 16.8678 72.8197 16.769 73.1851 16.5229L73.8187 19.3341C73.0388 19.7535 71.9418 19.9997 70.9431 19.9997C68.2614 19.9997 67.1648 18.4708 67.1648 16.1773V10.6043H65.8482V7.62025L65.8483 7.61992ZM52.0772 7.61992V10.16H53.3934V17.1639H52.0772V19.704H58.5849V17.1638H57.2692V12.5767C57.2692 11.4423 57.7562 10.5793 59.1452 10.5793C60.4618 10.5793 60.9979 11.3682 60.9979 12.5767V19.7039H66.1898V17.1638H64.8737V11.4677C64.8737 8.80473 63.2401 7.29994 60.827 7.29994C59.4626 7.29994 58.2923 7.74391 57.2691 8.75515H57.1708V7.62067H52.0771L52.0772 7.61992ZM51.3943 17.5337L49.0304 15.5113C48.2018 16.5475 47.2265 16.9665 45.9591 16.9665C44.3993 16.9665 43.5219 16.3006 43.2048 14.9445H51.5406C51.9551 10.2837 49.9808 7.29928 45.3983 7.29928C41.767 7.29928 39.2077 9.46992 39.2077 13.6372C39.2077 17.7066 41.4499 19.9998 45.8129 19.9998C48.4214 19.9998 50.1028 19.186 51.3943 17.5342V17.5337ZM28.3122 19.7039V17.1638H26.9715V7.62025H23.1694V8.73015H23.0719C22.3161 7.74307 21.2679 7.29953 19.8056 7.29953C16.7101 7.29953 14.6386 9.76589 14.6386 13.6375C14.6386 17.6081 16.7834 20 19.684 20C21.1463 20 22.2433 19.5806 23.1207 18.5698H23.2182V19.7043H28.3127L28.3122 19.7039ZM7.91185 13.835C12.1039 13.835 15.0045 12.0341 15.0045 7.84182C15.0045 3.89566 12.3722 1.77501 7.91185 1.77501H0.160156V4.61118H1.71998V16.8682H0.160156V19.704H8.13055V16.8682H6.03408V13.835H7.91136H7.91185Z" fill="#121212"/>
</svg>
