<svg viewBox="0 0 51 20" fill="none" xmlns="http://www.w3.org/2000/svg">
<path d="M4.24437 10.2077C4.24437 12.1761 4.24437 14.0557 4.24437 15.9654C2.81461 15.9654 1.43734 15.9654 0.027701 15.9654C0.027701 10.7409 0.027701 5.5335 0.027701 0.282725C1.41082 0.282725 2.78443 0.282725 4.21748 0.282725C4.21748 2.12914 4.21748 3.94401 4.21748 5.78039C4.74571 5.78039 5.21486 5.78039 5.75626 5.78039C5.75626 3.96005 5.75626 2.14756 5.75626 0.25282C7.18272 0.229116 8.53768 0.242791 9.91842 0.242062C9.91842 5.51417 9.91842 10.7095 9.91842 15.9917C8.57499 15.9999 7.23339 15.994 5.82576 15.9955C5.82576 14.0271 5.82576 12.1052 5.82576 10.2077C5.2776 10.2077 4.79656 10.2077 4.24437 10.2077Z" fill="#121212"/>
<path d="M44.842 7.68007C44.842 8.85838 44.8526 10.0369 44.8389 11.2152C44.8259 12.3428 44.4884 13.3756 43.8578 14.3126C43.0802 15.4682 41.9336 16.0013 40.6013 16.1651C39.756 16.269 38.9056 16.238 38.071 16.0017C36.2314 15.4807 34.8379 13.8489 34.7078 11.9438C34.6385 10.9289 34.6769 9.90631 34.6747 8.88719C34.671 7.20598 34.6482 5.52422 34.6818 3.84356C34.7102 2.4231 35.3187 1.30807 36.6023 0.60823C37.1635 0.302256 37.7629 0.133771 38.3981 0.0746913C39.5319 -0.0307035 40.6612 -0.0580551 41.7783 0.219472C43.6977 0.696484 44.8193 2.08284 44.8475 4.05052C44.8648 5.26019 44.8508 6.47022 44.8508 7.68007C44.8478 7.68007 44.8449 7.68007 44.842 7.68007ZM40.5368 7.8812C40.5441 7.8812 40.5512 7.8812 40.5585 7.8812C40.5585 6.79935 40.5653 5.71732 40.5556 4.63566C40.5509 4.10668 40.2675 3.81329 39.7973 3.80709C39.3166 3.80089 39.0659 4.07513 39.056 4.62764C39.0474 5.11358 39.0432 5.59953 39.0404 6.08547C39.0307 7.76286 39.0167 9.44042 39.0221 11.1178C39.0227 11.2905 39.1109 11.486 39.2153 11.63C39.4044 11.8911 39.7636 11.9675 40.0653 11.8592C40.3925 11.7418 40.5311 11.5472 40.534 11.1275C40.5419 10.0454 40.5368 8.96323 40.5368 7.8812Z" fill="#121212"/>
<path d="M10.9816 15.9644C10.9816 10.7233 10.9816 5.51553 10.9816 0.273872C13.5179 0.273872 16.0292 0.273872 18.5836 0.273872C18.5836 1.50998 18.5836 2.72457 18.5836 3.99533C17.4602 3.99533 16.3359 3.99533 15.1697 3.99533C15.1697 4.6514 15.1697 5.25332 15.1697 5.91906C16.1918 5.91906 17.2215 5.91906 18.3336 5.91906C18.3521 7.27041 18.3416 8.55994 18.3413 9.91841C17.2556 9.91841 16.2258 9.91841 15.1624 9.91841C15.1624 10.5737 15.1624 11.1613 15.1624 11.8082C16.2949 11.8082 17.4209 11.8082 18.5858 11.8082C18.5858 13.2219 18.5858 14.5771 18.5858 15.9642C16.0561 15.9644 13.5432 15.9644 10.9816 15.9644Z" fill="#121212"/>
<path d="M27.194 0.271824C28.6126 0.271824 29.99 0.271824 31.4212 0.271824C31.4212 4.12803 31.4212 7.95288 31.4212 11.8339C32.2694 11.8339 33.0657 11.8339 33.9045 11.8339C33.9045 13.2299 33.9045 14.5703 33.9045 15.9534C31.6842 15.9534 29.4578 15.9534 27.194 15.9534C27.194 10.7484 27.194 5.54102 27.194 0.271824Z" fill="#121212"/>
<path d="M19.4148 0.271468C20.808 0.271468 22.1843 0.271468 23.6254 0.271468C23.6254 4.12294 23.6254 7.94395 23.6254 11.829C24.482 11.829 25.2762 11.829 26.1089 11.829C26.1089 13.2343 26.1089 14.5762 26.1089 15.9571C23.9062 15.9571 21.6812 15.9571 19.4148 15.9571C19.4148 10.7353 19.4148 5.51878 19.4148 0.271468Z" fill="#121212"/>
<path d="M46.1388 10.7784C46.1388 7.25574 46.1388 3.77534 46.1388 0.258113C47.5335 0.258113 48.9069 0.258113 50.309 0.258113C50.309 3.76659 50.309 7.25702 50.309 10.7784C48.9213 10.7784 47.5459 10.7784 46.1388 10.7784Z" fill="#121212"/>
<path d="M48.1312 16.2862C46.8873 16.2889 45.8998 15.3301 45.885 14.1057C45.8702 12.8762 46.873 11.9024 48.1526 11.9043C49.4037 11.9061 50.3674 12.8663 50.3606 14.1037C50.3537 15.3444 49.3944 16.2834 48.1312 16.2862Z" fill="#121212"/>
<path d="M21.5188 16.9645C21.8998 16.9645 22.2209 16.9645 22.5798 16.9645C22.5798 17.9338 22.5798 18.8831 22.5798 19.8805C22.2164 19.8805 21.8495 19.8805 21.4237 19.8805C20.7866 19.271 20.1119 18.6255 19.4373 17.98C19.4038 17.9924 19.3704 18.0046 19.3369 18.017C19.3369 18.634 19.3369 19.2513 19.3369 19.8947C18.9517 19.8947 18.6309 19.8947 18.2792 19.8947C18.2792 18.9105 18.2792 17.9603 18.2792 16.969C18.6792 16.969 19.0653 16.969 19.499 16.969C20.1225 17.5702 20.7758 18.2 21.5186 18.9163C21.5188 18.2008 21.5188 17.6001 21.5188 16.9645Z" fill="#121212"/>
<path d="M36.6537 16.9286C37.0041 16.9286 37.3147 16.9222 37.6249 16.9299C38.3311 16.9476 39.0379 16.9594 39.7428 17.0015C39.9555 17.0143 40.1735 17.0949 40.3705 17.185C41.3339 17.6255 41.4515 18.852 40.6002 19.4883C40.192 19.7936 39.7117 19.8984 39.2252 19.9169C38.4399 19.9464 37.6527 19.9245 36.8662 19.921C36.807 19.9209 36.7479 19.8941 36.6535 19.8709C36.6537 18.9174 36.6537 17.9705 36.6537 16.9286ZM37.8111 19.3529C37.9962 19.3529 38.1517 19.3618 38.3059 19.351C38.6494 19.327 39.0016 19.3323 39.3331 19.2531C39.742 19.1556 39.9963 18.7675 39.9868 18.3764C39.9769 17.9601 39.7356 17.6366 39.2751 17.5675C38.8014 17.4964 38.3147 17.5108 37.8109 17.4868C37.8111 18.1403 37.8111 18.7282 37.8111 19.3529Z" fill="#121212"/>
<path d="M46.9668 16.947C47.4401 16.947 47.8624 16.947 48.3139 16.947C48.9231 17.9078 49.5322 18.868 50.1839 19.8957C49.7028 19.8957 49.3191 19.8957 48.9242 19.8957C48.8029 19.7125 48.6828 19.531 48.5546 19.3372C47.9389 19.3372 47.3285 19.3372 46.7005 19.3372C46.5754 19.5203 46.4524 19.6999 46.3151 19.9006C45.9495 19.9006 45.578 19.9006 45.1196 19.9006C45.6969 18.8591 46.3698 17.9437 46.9668 16.947ZM48.1913 18.691C47.9976 18.3524 47.8321 18.0632 47.63 17.7098C47.4295 18.0621 47.266 18.3493 47.0716 18.691C47.4646 18.691 47.7827 18.691 48.1913 18.691Z" fill="#121212"/>
<path d="M28.9356 16.9519C28.3242 17.9036 27.7166 18.8494 27.0461 19.893C27.5322 19.893 27.8989 19.893 28.2761 19.893C28.4125 19.7008 28.5466 19.512 28.6646 19.3457C29.3128 19.3457 29.9209 19.3457 30.5236 19.3457C30.6571 19.5483 30.776 19.7288 30.8766 19.8813C31.296 19.8813 31.6743 19.8813 32.1366 19.8813C31.4809 18.8487 30.8713 17.889 30.2763 16.9519C29.8006 16.9519 29.3801 16.9519 28.9356 16.9519ZM29.0211 18.7002C29.2118 18.3667 29.3752 18.0812 29.5853 17.7136C29.7894 18.0653 29.9604 18.3596 30.1582 18.7002C29.7622 18.7002 29.4379 18.7002 29.0211 18.7002Z" fill="#121212"/>
<path d="M3.67646 18.8804C4.03861 18.8804 4.36637 18.8804 4.72121 18.8804C4.70822 19.2644 4.44996 19.4418 4.19444 19.6079C3.65561 19.9586 3.03282 20.0016 2.42174 20C1.89077 19.9987 1.35669 19.9354 0.862297 19.6861C0.353092 19.4294 0.0470936 19.0328 0.0282545 18.4699C0.00923246 17.9021 0.288893 17.4572 0.801207 17.2207C1.91674 16.7055 3.05385 16.709 4.17798 17.2032C4.46423 17.329 4.70401 17.5327 4.76291 17.9276C4.3907 17.9276 4.05342 17.9276 3.65817 17.9276C3.3101 17.4236 2.73834 17.4367 2.16439 17.4956C1.58276 17.5553 1.24182 17.9178 1.2431 18.4349C1.2442 18.9529 1.59135 19.2999 2.17299 19.3647C2.90899 19.4465 3.20694 19.3519 3.67646 18.8804Z" fill="#121212"/>
<path d="M12.163 16.9507C11.708 16.9507 11.2866 16.9507 10.8227 16.9507C10.2087 17.9074 9.5892 18.873 8.92855 19.9028C9.41929 19.9028 9.79186 19.9028 10.1524 19.9028C10.3045 19.6915 10.4399 19.5033 10.559 19.3379C11.1988 19.3379 11.7945 19.3379 12.3964 19.3379C12.5343 19.54 12.6646 19.7307 12.7783 19.8974C13.1911 19.8974 13.5613 19.8974 14.0325 19.8974C13.3806 18.87 12.7721 17.9107 12.163 16.9507ZM10.9173 18.684L11.4813 17.7036C11.6836 18.063 11.8429 18.3462 12.0332 18.684C11.6386 18.684 11.3085 18.684 10.9173 18.684Z" fill="#121212"/>
</svg>
