<svg viewBox="0 0 90 20" fill="none" xmlns="http://www.w3.org/2000/svg">
<path d="M0.203125 0.480587V0.642029H2.36714V19.3525H0.203125V19.5207H7.6053V19.3525H5.48648V9.95768H6.06063C9.39485 10.0484 9.10105 13.1302 9.14811 14.0112H9.28069V5.80332H9.17151C9.03047 7.5636 9.04727 9.6702 6.05727 9.78277C6.05229 9.78439 5.4932 9.78439 5.48648 9.78439V0.641905H8.10725C12.1331 0.641905 12.4756 3.15367 12.9878 5.69398H13.0768V0.480462L0.203125 0.480587Z" fill="#121212"/>
<path d="M45.0686 0.481314V0.583915H45.0737V0.647743H47.1621V9.6794H41.4322V0.647743H43.524V0.585535H43.5257V0.481314H36.1253L36.1269 0.647743H38.2423V19.3516L36.1269 19.3532V19.4154H36.1253V19.5196H36.1269V19.5214L43.5257 19.5196V19.3516H41.4322V9.84758H47.1621V19.3516L45.0703 19.3532L45.0719 19.5196V19.5214L52.4153 19.5196L52.4136 19.3516H50.352V0.647743H52.4003V0.481314H45.0686Z" fill="#121212"/>
<path d="M52.7248 0.479854V0.580708H52.7282V0.648028H54.7629V19.3534L52.7248 19.3551V19.5199H60.048V19.3518L57.9562 19.3534V0.648028H60.0548V0.479854H52.7248Z" fill="#121212"/>
<path d="M84.0908 0.480568V0.648743H84.3157C86.4647 0.732767 86.8491 2.33834 86.9045 3.12348V13.6127L79.5477 0.455261H76.0909V0.456882H73.8966V0.480444H73.8933V0.648618H75.9482V19.349H73.8849V19.5205L79.1851 19.5189V19.3507H78.6479C76.3043 19.2667 76.1514 16.8894 76.1195 16.2438V0.662082L87.0674 19.8837L87.0742 19.7088V0.648618H89.0267V0.480444L84.0908 0.480568Z" fill="#121212"/>
<path d="M70.0164 2.2193C69.7092 1.46944 69.0729 0.146358 67.1272 0.146358C65.6279 0.146358 64.8069 0.961796 64.2949 2.11171C63.2926 4.38474 63.1331 9.06532 63.1331 10.027C63.1331 12.406 63.494 15.8038 64.2345 17.7556C64.9313 19.5478 66.3935 19.869 67.1323 19.869C68.6097 19.869 69.5045 18.9578 70.1206 17.6211C70.715 16.3367 71.1381 14.0116 71.1381 9.89248C71.138 6.20374 70.5923 3.58277 70.0164 2.2193ZM62.2652 2.8329C63.6586 0.961671 65.5054 0 67.1038 0C70.8174 0 74.1801 4.51913 74.1801 10.0269C74.1801 15.2673 71.0222 20 67.1457 20C63.7225 20 60.0911 16.0441 60.0911 10.0001C60.091 8.74243 60.3781 5.37496 62.2652 2.8329Z" fill="#121212"/>
<path d="M26.4577 3.46856C26.409 4.55465 26.9614 6.10475 27.7975 6.68644C29.1641 7.63976 30.7758 8.23154 32.2667 8.88217C33.7457 9.52944 35.4129 10.3247 35.9568 12.1908C36.1028 12.6851 36.1633 13.245 36.1633 13.7645C36.1633 16.9453 33.5325 19.8657 30.6683 19.8657C30.022 19.8657 29.3773 19.7497 28.7612 19.5295C28.1736 19.3227 27.6414 18.9764 27.0906 18.6721C26.6642 18.4367 26.0767 18.213 25.6804 18.6469C25.4521 18.8957 25.4269 19.1798 25.3832 19.5093H25.2976V12.9474H25.3882C25.8785 16.8143 28.1499 19.716 30.5944 19.716C32.5251 19.716 34.4626 18.4197 34.4626 15.9988C34.4626 15.3399 34.3417 14.6774 33.9874 14.1377C33.2134 12.9524 31.9409 12.3623 30.7942 11.7638C29.3941 11.0325 27.8847 10.6189 26.7011 9.44367C25.1146 7.86503 24.9618 5.02701 25.9171 2.98773C26.1723 2.44468 26.503 1.94365 26.8975 1.52166C27.292 1.10141 27.737 0.726417 28.2423 0.492793C28.8232 0.220399 29.4511 0.10446 30.0773 0.0808981C30.2553 0.0741661 30.4029 0.0658134 30.5776 0.0759113C31.1165 0.109571 31.3919 0.154949 31.9291 0.282732C32.3857 0.392064 32.9263 0.595393 33.3897 0.80558C33.6146 0.90818 33.7472 0.97712 34.0578 1.03596C34.669 1.10652 34.778 0.536676 34.8251 0.299562H34.9359V5.53328H34.8251C34.6203 2.26828 32.7869 0.824155 31.7309 0.425723C31.202 0.22738 30.5909 0.183622 30.0318 0.218903C29.9884 0.222144 26.5971 0.317888 26.4577 3.46856Z" fill="#121212"/>
<path d="M13.3168 12.5496L16.1406 4.30486L18.9258 12.5496H13.3168ZM25.3358 19.4192V19.352H24.0682L17.44 0.0613589H17.4149L16.1809 3.67604H16.1792L10.8102 19.3519H8.75185V19.5201H14.3576V19.3519H13.7784C11.5857 19.1821 11.8678 16.9562 12.029 16.3088V16.3104L13.258 12.7159H18.9863L21.2225 19.3518H19.0886V19.419H19.0836L19.0803 19.5198H25.381L25.3826 19.419H25.3358V19.4192Z" fill="#121212"/>
</svg>
