<svg width="100" height="100" viewBox="0 0 100 100" fill="none" xmlns="http://www.w3.org/2000/svg">
<g clip-path="url(#clip0_6120_1923)">
<path d="M0 0H100V100H0V0Z" fill="black"/>
<mask id="mask0_6120_1923" style="mask-type:luminance" maskUnits="userSpaceOnUse" x="0" y="0" width="100" height="100">
<path d="M0 0H100V100H0V0Z" fill="white"/>
</mask>
<g mask="url(#mask0_6120_1923)">
<path d="M77.3997 46.1599L81.0597 41.7199C79.7827 40.4111 78.2593 39.368 76.5774 38.6506C74.8954 37.9332 73.0882 37.5557 71.2597 37.5399C68.9448 37.5085 66.66 38.0659 64.6197 39.1599C62.6737 40.2154 61.0539 41.7837 59.9363 43.6947C58.8186 45.6057 58.2457 47.7863 58.2797 49.9999C58.2605 52.2625 58.8549 54.4881 59.9997 56.4399C61.0829 58.3364 62.6584 59.9051 64.5597 60.9799C66.5497 62.0958 68.7983 62.6683 71.0797 62.6399C72.9389 62.6161 74.7721 62.2004 76.4597 61.4199C78.2267 60.6282 79.823 59.5006 81.1597 58.0999L77.4597 54.0999C76.6147 54.9369 75.6255 55.6144 74.5397 56.0999C73.5674 56.5773 72.5026 56.8367 71.4197 56.8599C70.2206 56.9091 69.0328 56.6105 67.9997 55.9999C66.9964 55.3927 66.1798 54.5208 65.6397 53.4799C65.0614 52.3716 64.7593 51.14 64.7593 49.8899C64.7593 48.6398 65.0614 47.4082 65.6397 46.2999C66.1906 45.2772 67.0055 44.4208 67.9997 43.8199C69.0034 43.2031 70.1617 42.8841 71.3397 42.8999C72.4695 42.9211 73.5761 43.2236 74.5597 43.7799C75.6511 44.3742 76.6105 45.1838 77.3797 46.1599M37.2197 45.2199L39.5997 40.1599C38.1996 39.2879 36.6851 38.6148 35.0997 38.1599C33.4117 37.6588 31.6605 37.4028 29.8997 37.3999C28.1559 37.3702 26.4232 37.6828 24.7997 38.3199C23.4442 38.859 22.2665 39.7665 21.3997 40.9399C20.5812 42.1101 20.1605 43.5124 20.1997 44.9399C20.1344 46.3151 20.5439 47.6709 21.3597 48.7799C22.1087 49.7066 23.0688 50.4404 24.1597 50.9199C25.4979 51.4841 26.8748 51.952 28.2797 52.3199C29.373 52.6132 30.233 52.8732 30.8597 53.0999C31.4173 53.2947 31.9331 53.5932 32.3797 53.9799C32.5739 54.1569 32.7279 54.3734 32.8314 54.6149C32.9348 54.8564 32.9854 55.1172 32.9797 55.3799C32.9954 55.6818 32.9294 55.9823 32.7886 56.2498C32.6478 56.5174 32.4375 56.7419 32.1797 56.8999C31.4956 57.2772 30.7201 57.4572 29.9397 57.4199C28.4055 57.3704 26.8963 57.0169 25.4997 56.3799C23.9094 55.7401 22.4362 54.8412 21.1397 53.7199L18.6797 58.6199C20.2217 59.8846 21.9754 60.8664 23.8597 61.5199C25.7854 62.2097 27.8142 62.5681 29.8597 62.5799C31.5536 62.5999 33.2361 62.3014 34.8197 61.6999C36.2095 61.1827 37.4281 60.2895 38.3397 59.1199C39.2064 57.9164 39.6559 56.4625 39.6197 54.9799C39.6984 53.5505 39.2816 52.1377 38.4397 50.9799C37.7034 50.0076 36.7334 49.2371 35.6197 48.7399C34.2562 48.1715 32.8605 47.684 31.4397 47.2799C30.3197 46.9399 29.4397 46.6599 28.8797 46.4399C28.3434 46.2474 27.8481 45.9556 27.4197 45.5799C27.2327 45.411 27.0842 45.204 26.9842 44.9729C26.8841 44.7417 26.8348 44.4917 26.8397 44.2399C26.8269 43.9878 26.8836 43.737 27.0035 43.5148C27.1234 43.2926 27.3019 43.1076 27.5197 42.9799C28.076 42.6546 28.7163 42.5014 29.3597 42.5399C30.6243 42.5899 31.8731 42.8396 33.0597 43.2799C34.5016 43.7518 35.8893 44.3753 37.1997 45.1399M55.9997 54.2999V37.9999H49.5397V54.2399C49.5612 54.9667 49.3197 55.6768 48.8597 56.2399C48.6171 56.4831 48.3263 56.6728 48.0059 56.7968C47.6856 56.9208 47.3428 56.9764 46.9997 56.9599C46.1361 56.9231 45.2933 56.6833 44.5397 56.2599C43.6064 55.7514 42.751 55.1115 41.9997 54.3599V54.9199C41.9903 55.4019 41.9503 55.8829 41.8797 56.3599C41.7335 57.6543 41.2959 58.8989 40.5997 59.9999C42.5295 61.5879 44.9608 62.4385 47.4597 62.3999C49.7211 62.5282 51.9419 61.7592 53.6397 60.2599C54.4098 59.4697 55.0081 58.5287 55.3971 57.4962C55.786 56.4636 55.9571 55.3618 55.8997 54.2599" fill="white"/>
</g>
</g>
<defs>
<clipPath id="clip0_6120_1923">
<rect width="100" height="100" fill="white"/>
</clipPath>
</defs>
</svg>
