<svg viewBox="0 0 122 20" fill="none" xmlns="http://www.w3.org/2000/svg">
<path d="M26.4582 9.48464C26.7048 7.8213 26.9098 6.40598 27.0187 4.8528H27.2922C27.4287 6.40598 27.6477 7.8213 27.8937 9.49816L28.7264 13.7454H25.5973L26.4582 9.48464ZM24.477 19.6148L24.8613 17.3053H29.4535L29.8378 19.6148H35.0859L30.5892 0.371707H24.108L19.7067 19.6148H24.477ZM5.13216 19.6148V12.3997C5.13216 11.0939 5.07771 9.66437 4.95473 7.93274L5.16163 7.90311L7.58229 17.315H11.7305L14.1973 7.92308L14.3818 7.93146C14.2588 9.67725 14.2178 11.0926 14.2178 12.3984L14.1903 19.6135H19.0015V0.371707H12.4614L11.1598 5.52535C10.7114 7.68859 10.2938 8.58082 9.8473 11.3084H9.57442C9.08952 8.62333 8.73081 7.79489 8.26192 5.52535L6.87832 0.371707H0.359375V19.6148H5.13216ZM41.5523 19.9994C45.8716 19.9994 48.3588 17.7865 48.4543 12.3571L43.6437 11.3676C43.6027 14.9552 42.8782 16.0549 41.6618 16.0549C40.3634 16.0549 39.735 15.0242 39.735 12.8931V7.06564C39.735 4.94879 40.3634 3.91806 41.6484 3.91806C43.0012 3.91806 43.6437 4.93526 43.6437 8.26129L48.3723 7.58745C48.3326 2.22702 46.008 0.000644097 41.5523 0.000644097C36.9057 0.000644097 34.7188 2.68054 34.7188 8.24647V11.7394C34.7188 17.3201 36.8512 20 41.5523 20M60.0029 19.6148V15.5324H54.5492V0.371707H49.5881V19.6148H60.0029ZM72.1574 19.6148V15.5324H65.9665V11.6015H71.4195V8.06867H65.9665V4.45404H71.9115V0.371707H61.0054V19.6148H72.1574ZM79.5853 9.48464C79.8313 7.8213 80.0337 6.40598 80.1458 4.8528H80.4193C80.5558 6.40598 80.7742 7.8213 81.0202 9.49816L81.8529 13.7454H78.7231L79.5853 9.48464ZM77.606 19.6148L77.9904 17.3053H82.5825L82.9668 19.6148H88.2149L83.7131 0.371707H77.2345L72.8339 19.6148H77.606ZM93.7269 19.6148V13.7731C93.7269 11.9449 93.5905 9.6502 93.4124 7.71178L93.6994 7.65638C94.1478 9.53939 94.4789 10.5978 95.0388 12.1239L98.0186 19.6148H103.444V0.371707H98.6336V6.65335C98.6336 8.20653 98.7566 9.97938 98.9481 12.0962L98.6611 12.1375C98.2371 10.527 97.8681 9.38865 97.4441 8.30252L94.3969 0.371707H88.9163V19.6148H93.7269ZM114.01 19.9852C118.274 19.9852 121.159 17.8271 121.159 14.1435C121.159 10.5837 118.973 9.41506 117.046 8.39786L115.118 7.38066C113.096 6.32223 112.726 5.74502 112.726 5.04413C112.726 4.27108 113.367 3.71127 114.298 3.71127C115.734 3.71127 116.191 4.50235 116.445 6.49939L120.746 5.73794C120.69 2.08143 118.493 0 114.367 0C110.46 0 108.039 2.04793 108.025 5.49765C107.998 8.72769 109.993 10.0889 111.88 11.1196L113.765 12.1504C115.652 13.1811 116.28 13.8137 116.28 14.8032C116.28 15.6555 115.319 16.2604 114.242 16.2604C112.769 16.2604 112.251 15.3772 111.956 13.1154L107.408 13.9187C107.583 18.106 109.622 19.9852 114.009 19.9852M106.543 6.27392L108.327 0.371707H104.91L104.151 5.29021L106.543 6.27392Z" fill="#121212"/>
</svg>
