<svg width="18" height="18" viewBox="0 0 18 18" fill="none" xmlns="http://www.w3.org/2000/svg">
<path fill-rule="evenodd" clip-rule="evenodd" d="M9.14539 1C4.8072 1 1.2905 4.51656 1.2905 8.85475C1.2905 10.3386 1.70233 11.7264 2.41758 12.9104L1 17.1245L5.34879 15.7321C6.47405 16.3544 7.76819 16.7091 9.14539 16.7091C13.4833 16.7091 17 13.1927 17 8.85475C17 4.51656 13.4833 1 9.14539 1ZM9.14539 15.4582C7.80393 15.4582 6.55494 15.0559 5.51212 14.3661L2.97434 15.1788L3.79913 12.7263C3.00861 11.6377 2.54151 10.2999 2.54151 8.85461C2.54151 5.21327 5.50398 2.25088 9.14539 2.25088C12.7866 2.25088 15.7491 5.21327 15.7491 8.85461C15.7491 12.4958 12.7866 15.4582 9.14539 15.4582Z" fill="#121212"/>
<path fill-rule="evenodd" clip-rule="evenodd" d="M7.30317 5.6058C7.17594 5.29915 7.07847 5.28876 6.88193 5.27942C6.81452 5.27619 6.74142 5.2731 6.66144 5.2731C6.40824 5.2731 6.14569 5.34767 5.98748 5.50953C5.79494 5.70649 5.31352 6.16783 5.31352 7.11508C5.31352 8.06247 6.00349 8.97792 6.09962 9.10642C6.19603 9.23478 7.4453 11.2073 9.38896 12.0126C10.906 12.641 11.3565 12.5851 11.7026 12.5094C12.2062 12.3994 12.8386 12.0285 12.999 11.5791C13.1595 11.1294 13.1595 10.744 13.1114 10.6639C13.0632 10.5835 12.9349 10.5356 12.7423 10.439C12.5498 10.3428 11.603 9.877 11.4266 9.81289C11.25 9.74871 11.0868 9.7683 10.9511 9.95606C10.7638 10.2154 10.5836 10.4819 10.4344 10.6399C10.3172 10.7639 10.1288 10.7811 9.96672 10.7123C9.7536 10.6215 9.15372 10.4124 8.41818 9.75664C7.8459 9.24643 7.45941 8.61615 7.34706 8.42333C7.23471 8.23079 7.33716 8.11584 7.42374 8.01107C7.52247 7.89149 7.61354 7.80561 7.70981 7.69333C7.80608 7.58084 7.85987 7.52094 7.92405 7.3923C7.98823 7.26394 7.94505 7.13144 7.89688 7.03503C7.84856 6.93855 7.46313 5.99144 7.30317 5.6058Z" fill="#121212"/>
</svg>
