<svg width="18" height="18" viewBox="0 0 18 18" fill="none" xmlns="http://www.w3.org/2000/svg">
<path fill-rule="evenodd" clip-rule="evenodd" d="M15.2336 3.33889C15.9217 3.52375 16.466 4.06804 16.6508 4.75609C16.9897 6.00898 17 8.60718 17 8.60718C17 8.60718 17 11.2157 16.6611 12.4583C16.4763 13.1463 15.932 13.6906 15.2439 13.8755C14.0013 14.2144 9 14.2144 9 14.2144C9 14.2144 3.99872 14.2144 2.7561 13.8755C2.06804 13.6906 1.52375 13.1463 1.3389 12.4583C1 11.2054 1 8.60718 1 8.60718C1 8.60718 1 6.00898 1.32863 4.76637C1.51348 4.07831 2.05777 3.53402 2.74583 3.34917C3.98845 3.01027 8.98973 3 8.98973 3C8.98973 3 13.991 3 15.2336 3.33889ZM11.5469 8.60719L7.39795 11.0103V6.20411L11.5469 8.60719Z" fill="#121212"/>
</svg>
