<svg width="18" height="18" viewBox="0 0 18 18" fill="none" xmlns="http://www.w3.org/2000/svg">
<path d="M17 2.17647V15.8235C17 16.1355 16.8761 16.4348 16.6554 16.6554C16.4348 16.8761 16.1355 17 15.8235 17H2.17647C1.86445 17 1.56521 16.8761 1.34458 16.6554C1.12395 16.4348 1 16.1355 1 15.8235V2.17647C1 1.86445 1.12395 1.56521 1.34458 1.34458C1.56521 1.12395 1.86445 1 2.17647 1L15.8235 1C16.1355 1 16.4348 1.12395 16.6554 1.34458C16.8761 1.56521 17 1.86445 17 2.17647ZM5.70588 7.11765H3.35294V14.6471H5.70588V7.11765ZM5.91765 4.52941C5.91889 4.35143 5.88506 4.17495 5.81809 4.01004C5.75113 3.84513 5.65233 3.69503 5.52736 3.56831C5.40238 3.44158 5.25366 3.34071 5.0897 3.27146C4.92574 3.20221 4.74975 3.16594 4.57176 3.16471H4.52941C4.16747 3.16471 3.82035 3.30849 3.56442 3.56442C3.30849 3.82035 3.16471 4.16747 3.16471 4.52941C3.16471 4.89135 3.30849 5.23847 3.56442 5.4944C3.82035 5.75034 4.16747 5.89412 4.52941 5.89412C4.70741 5.8985 4.88452 5.86776 5.05063 5.80367C5.21674 5.73957 5.36859 5.64338 5.49751 5.52057C5.62643 5.39777 5.72989 5.25077 5.80198 5.08797C5.87407 4.92517 5.91337 4.74976 5.91765 4.57176V4.52941ZM14.6471 10.0729C14.6471 7.80941 13.2071 6.92941 11.7765 6.92941C11.3081 6.90596 10.8417 7.00572 10.4239 7.21876C10.0061 7.43179 9.65142 7.75065 9.39529 8.14353H9.32941V7.11765H7.11765V14.6471H9.47059V10.6424C9.43658 10.2322 9.56577 9.8252 9.83011 9.50975C10.0944 9.19431 10.4726 8.99591 10.8824 8.95765H10.9718C11.72 8.95765 12.2753 9.42824 12.2753 10.6141V14.6471H14.6282L14.6471 10.0729Z" fill="#121212"/>
</svg>
