<svg width="18" height="18" viewBox="0 0 18 18" fill="none" xmlns="http://www.w3.org/2000/svg">
<path d="M13.6193 4.3623V4.66309C13.2226 4.73356 12.9223 4.85821 12.7184 5.03705C12.4264 5.30262 12.082 5.7091 11.8561 6.25647L7.2597 15.6379H6.95388L2.33956 6.13453C2.12466 5.64677 1.8325 5.34869 1.74434 5.24029C1.60658 5.07229 1.43714 4.94086 1.23602 4.84601C1.03489 4.75117 0.763511 4.6902 0.421875 4.66309V4.3623H4.91173V4.66309C4.39376 4.71188 4.14682 4.7986 3.99254 4.92324C3.83824 5.0479 3.7611 5.20778 3.7611 5.40288C3.7611 5.67387 3.88784 6.0966 4.14131 6.67107L7.54899 13.134L10.8808 6.75237C11.1398 6.1237 11.3546 5.68742 11.3546 5.44352C11.3546 5.28636 11.2747 5.13597 11.1149 4.99234C10.9551 4.84873 10.7743 4.74711 10.3941 4.68748C10.3665 4.68207 10.3197 4.67394 10.2536 4.66309V4.3623H13.6193Z" fill="black"/>
<path d="M17.5692 4.3623V4.66309C17.1725 4.73356 16.8722 4.85821 16.6683 5.03705C16.3762 5.30262 16.0319 5.7091 15.806 6.25647L11.7721 15.6379H11.4663L7.20351 6.13453C6.9886 5.64677 6.69645 5.34869 6.60828 5.24029C6.47053 5.07229 6.30108 4.94086 6.09996 4.84601C5.89883 4.75117 5.71664 4.6902 5.375 4.66309V4.3623H9.77567V4.66309C9.2577 4.71188 9.01076 4.7986 8.85648 4.92324C8.70219 5.0479 8.62504 5.20778 8.62505 5.40288C8.62504 5.67387 8.75178 6.0966 9.00525 6.67107L12.0614 13.134L14.8307 6.75237C15.0896 6.1237 15.3045 5.68742 15.3045 5.44352C15.3045 5.28636 15.2246 5.13597 15.0648 4.99234C14.905 4.84873 14.635 4.74711 14.2548 4.68748C14.2272 4.68207 14.1804 4.67394 14.1143 4.66309V4.3623H17.5692Z" fill="black"/>
</svg>
