<svg width="18" height="18" viewBox="0 0 18 18" fill="none" xmlns="http://www.w3.org/2000/svg">
<path d="M13.8689 4.20715C13.007 3.64521 12.385 2.74609 12.1909 1.69797C12.149 1.47152 12.126 1.23846 12.126 1H9.37525L9.37084 12.024C9.3246 13.2585 8.30856 14.2493 7.06299 14.2493C6.67586 14.2493 6.31134 14.1525 5.9904 13.9836C5.25441 13.5963 4.75073 12.8248 4.75073 11.937C4.75073 10.662 5.78806 9.62467 7.06299 9.62467C7.30099 9.62467 7.52929 9.66394 7.74525 9.73158V6.92339C7.52176 6.89296 7.29469 6.87394 7.06299 6.87394C4.2712 6.87394 2 9.14525 2 11.937C2 13.6499 2.8558 15.1658 4.16143 16.0824C4.98381 16.6597 5.98415 17 7.06299 17C9.85478 17 12.126 14.7288 12.126 11.937V6.34694C13.2049 7.12129 14.5266 7.5776 15.9529 7.5776V4.82688C15.1846 4.82688 14.469 4.59847 13.8689 4.20715Z" fill="#121212"/>
</svg>
