<svg width="18" height="18" viewBox="0 0 18 18" fill="none" xmlns="http://www.w3.org/2000/svg">
<path d="M8.9967 1C4.57384 1 1 4.58042 1 8.9967C1 12.3863 3.10613 15.2822 6.08104 16.4471C6.00864 15.8153 5.94941 14.8412 6.10736 14.1501C6.25216 13.5249 7.04195 10.1748 7.04195 10.1748C7.04195 10.1748 6.80502 9.69437 6.80502 8.99013C6.80502 7.87782 7.45002 7.04854 8.25298 7.04854C8.93747 7.04854 9.26656 7.5619 9.26656 8.174C9.26656 8.8585 8.83216 9.88523 8.60181 10.8396C8.41094 11.636 9.0033 12.2875 9.78651 12.2875C11.2081 12.2875 12.3007 10.7869 12.3007 8.62814C12.3007 6.71288 10.9251 5.3768 8.95722 5.3768C6.67997 5.3768 5.34389 7.08144 5.34389 8.84533C5.34389 9.52982 5.60715 10.267 5.93624 10.6684C6.00206 10.7474 6.00864 10.8198 5.9889 10.8988C5.92966 11.1489 5.79144 11.6952 5.76512 11.8071C5.73221 11.9519 5.64664 11.9848 5.49526 11.9124C4.50802 11.4385 3.88934 9.97738 3.88934 8.80584C3.88934 6.28507 5.71904 3.96832 9.17442 3.96832C11.9453 3.96832 14.1041 5.94282 14.1041 8.58864C14.1041 11.3464 12.3665 13.5644 9.95763 13.5644C9.14808 13.5644 8.38461 13.1432 8.12794 12.6429C8.12794 12.6429 7.72645 14.1699 7.62773 14.545C7.45002 15.2427 6.96298 16.1115 6.63389 16.6446C7.38421 16.8749 8.174 17 9.0033 17C13.4196 17 17 13.4196 17 9.0033C16.9934 4.58042 13.413 1 8.9967 1Z" fill="#121212"/>
</svg>
