<svg width="20" height="20" viewBox="0 0 20 20" fill="none" xmlns="http://www.w3.org/2000/svg">
<g id="icon" clip-path="url(#clip0_5401_30893)">
<path id="Vector" d="M17.5 10.625H15C14.6685 10.625 14.3505 10.7567 14.1161 10.9911C13.8817 11.2255 13.75 11.5435 13.75 11.875V15C13.75 15.3315 13.8817 15.6495 14.1161 15.8839C14.3505 16.1183 14.6685 16.25 15 16.25H16.25C16.5815 16.25 16.8995 16.1183 17.1339 15.8839C17.3683 15.6495 17.5 15.3315 17.5 15V10.625ZM17.5 10.625C17.5 9.64009 17.306 8.66482 16.9291 7.75487C16.5522 6.84493 15.9997 6.01814 15.3033 5.3217C14.6069 4.62526 13.7801 4.07281 12.8701 3.6959C11.9602 3.31899 10.9849 3.125 10 3.125C9.01509 3.125 8.03982 3.31899 7.12987 3.6959C6.21993 4.07281 5.39314 4.62526 4.6967 5.3217C4.00026 6.01814 3.44781 6.84493 3.0709 7.75487C2.69399 8.66482 2.5 9.64009 2.5 10.625M2.5 10.625V15C2.5 15.3315 2.6317 15.6495 2.86612 15.8839C3.10054 16.1183 3.41848 16.25 3.75 16.25H5C5.33152 16.25 5.64946 16.1183 5.88388 15.8839C6.1183 15.6495 6.25 15.3315 6.25 15V11.875C6.25 11.5435 6.1183 11.2255 5.88388 10.9911C5.64946 10.7567 5.33152 10.625 5 10.625H2.5Z" stroke="black" stroke-linecap="round" stroke-linejoin="round"/>
</g>
<defs>
<clipPath id="clip0_5401_30893">
<rect width="20" height="20" fill="white"/>
</clipPath>
</defs>
</svg>
