<svg width="18" height="18" viewBox="0 0 18 18" fill="none" xmlns="http://www.w3.org/2000/svg">
<g clip-path="url(#clip0_3549_6126)">
<path d="M9 15.75C12.7279 15.75 15.75 12.7279 15.75 9C15.75 5.27208 12.7279 2.25 9 2.25C5.27208 2.25 2.25 5.27208 2.25 9C2.25 12.7279 5.27208 15.75 9 15.75Z" stroke="black" stroke-linecap="round" stroke-linejoin="round"/>
<path d="M6.1875 9.00009C6.1875 11.634 7.12477 13.9867 8.59781 15.5736C8.64898 15.6293 8.71115 15.6737 8.78038 15.7041C8.84961 15.7345 8.92439 15.7502 9 15.7502C9.07561 15.7502 9.15039 15.7345 9.21962 15.7041C9.28885 15.6737 9.35102 15.6293 9.40219 15.5736C10.8752 13.9867 11.8125 11.634 11.8125 9.00009C11.8125 6.36618 10.8752 4.01352 9.40219 2.42657C9.35102 2.37091 9.28885 2.32648 9.21962 2.29609C9.15039 2.26569 9.07561 2.25 9 2.25C8.92439 2.25 8.84961 2.26569 8.78038 2.29609C8.71115 2.32648 8.64898 2.37091 8.59781 2.42657C7.12477 4.01352 6.1875 6.36618 6.1875 9.00009Z" stroke="black" stroke-linecap="round" stroke-linejoin="round"/>
<path d="M2.63281 6.75H15.365" stroke="black" stroke-linecap="round" stroke-linejoin="round"/>
<path d="M2.63281 11.25H15.365" stroke="black" stroke-linecap="round" stroke-linejoin="round"/>
</g>
<defs>
<clipPath id="clip0_3549_6126">
<rect width="18" height="18" fill="white"/>
</clipPath>
</defs>
</svg>
