<svg width="18" height="18" viewBox="0 0 18 18" fill="none" xmlns="http://www.w3.org/2000/svg">
<path fill-rule="evenodd" clip-rule="evenodd" d="M9 1C6.8272 1 6.5552 1.00907 5.70187 1.048C4.85013 1.08693 4.26827 1.2224 3.75947 1.42027C3.22613 1.6208 2.7424 1.93547 2.3424 2.34293C1.93558 2.74247 1.62072 3.22586 1.41973 3.75947C1.22293 4.26827 1.08693 4.85067 1.048 5.7024C1.0096 6.5552 1 6.82667 1 9C1 11.1733 1.00907 11.4448 1.048 12.2981C1.08693 13.1499 1.2224 13.7317 1.42027 14.2405C1.6208 14.7739 1.93547 15.2576 2.34293 15.6576C2.74248 16.0644 3.22587 16.3793 3.75947 16.5803C4.26827 16.7776 4.85013 16.9131 5.70187 16.952C6.5552 16.9909 6.8272 17 9 17C11.1728 17 11.4448 16.9909 12.2981 16.952C13.1499 16.9131 13.7317 16.7776 14.2405 16.5797C14.7739 16.3792 15.2576 16.0645 15.6576 15.6571C16.0644 15.2575 16.3793 14.7741 16.5803 14.2405C16.7776 13.7317 16.9131 13.1499 16.952 12.2981C16.9909 11.4448 17 11.1728 17 9C17 6.8272 16.9909 6.5552 16.952 5.70187C16.9131 4.85013 16.7776 4.26827 16.5797 3.75947C16.3789 3.22563 16.064 2.74204 15.6571 2.3424C15.2575 1.93558 14.7741 1.62072 14.2405 1.41973C13.7317 1.22293 13.1493 1.08693 12.2976 1.048C11.4448 1.0096 11.1733 1 9 1ZM9 2.4416C11.136 2.4416 11.3893 2.4496 12.2331 2.488C13.0128 2.52373 13.4363 2.65333 13.7184 2.76373C14.0917 2.90827 14.3584 3.08213 14.6384 3.3616C14.9184 3.6416 15.0917 3.90827 15.2363 4.2816C15.3461 4.56373 15.4763 4.9872 15.512 5.76693C15.5504 6.61067 15.5584 6.864 15.5584 9C15.5584 11.136 15.5504 11.3893 15.512 12.2331C15.4763 13.0128 15.3467 13.4363 15.2363 13.7184C15.1082 14.0659 14.9039 14.3803 14.6384 14.6384C14.3803 14.904 14.0659 15.1083 13.7184 15.2363C13.4363 15.3461 13.0128 15.4763 12.2331 15.512C11.3893 15.5504 11.1365 15.5584 9 15.5584C6.86347 15.5584 6.61067 15.5504 5.76693 15.512C4.9872 15.4763 4.56373 15.3467 4.2816 15.2363C3.93411 15.1082 3.61974 14.9039 3.3616 14.6384C3.09609 14.3802 2.8918 14.0659 2.76373 13.7184C2.65387 13.4363 2.52373 13.0128 2.488 12.2331C2.4496 11.3893 2.4416 11.136 2.4416 9C2.4416 6.864 2.4496 6.61067 2.488 5.76693C2.52373 4.9872 2.65333 4.56373 2.76373 4.2816C2.90827 3.90827 3.08213 3.6416 3.3616 3.3616C3.6197 3.09602 3.93409 2.89172 4.2816 2.76373C4.56373 2.65387 4.9872 2.52373 5.76693 2.488C6.61067 2.4496 6.864 2.4416 9 2.4416Z" fill="#121212"/>
<path fill-rule="evenodd" clip-rule="evenodd" d="M9.00262 11.6698C8.65208 11.6698 8.30497 11.6008 7.98111 11.4666C7.65726 11.3325 7.36299 11.1358 7.11512 10.888C6.86725 10.6401 6.67063 10.3458 6.53648 10.022C6.40234 9.69811 6.33329 9.351 6.33329 9.00046C6.33329 8.64992 6.40234 8.30281 6.53648 7.97895C6.67063 7.65509 6.86725 7.36083 7.11512 7.11296C7.36299 6.86509 7.65726 6.66847 7.98111 6.53432C8.30497 6.40017 8.65208 6.33113 9.00262 6.33113C9.71057 6.33113 10.3895 6.61236 10.8901 7.11296C11.3907 7.61356 11.672 8.29251 11.672 9.00046C11.672 9.70841 11.3907 10.3874 10.8901 10.888C10.3895 11.3886 9.71057 11.6698 9.00262 11.6698ZM9.00262 4.88846C7.91205 4.88846 6.86615 5.32169 6.095 6.09284C5.32385 6.86399 4.89063 7.90989 4.89062 9.00046C4.89063 10.091 5.32385 11.1369 6.095 11.9081C6.86615 12.6792 7.91205 13.1125 9.00262 13.1125C10.0932 13.1125 11.1391 12.6792 11.9102 11.9081C12.6814 11.1369 13.1146 10.091 13.1146 9.00046C13.1146 7.90989 12.6814 6.86399 11.9102 6.09284C11.1391 5.32169 10.0932 4.88846 9.00262 4.88846ZM14.3109 4.8138C14.3109 5.07159 14.2085 5.31882 14.0262 5.5011C13.8439 5.68339 13.5967 5.7858 13.3389 5.7858C13.0811 5.7858 12.8339 5.68339 12.6516 5.5011C12.4693 5.31882 12.3669 5.07159 12.3669 4.8138C12.3669 4.55601 12.4693 4.30877 12.6516 4.12649C12.8339 3.9442 13.0811 3.8418 13.3389 3.8418C13.5967 3.8418 13.8439 3.9442 14.0262 4.12649C14.2085 4.30877 14.3109 4.55601 14.3109 4.8138Z" fill="#121212"/>
</svg>
