<svg width="18" height="18" viewBox="0 0 18 18" fill="none" xmlns="http://www.w3.org/2000/svg">
<path fill-rule="evenodd" clip-rule="evenodd" d="M1 8.76C1 4.30112 4.49336 1 9 1C13.5066 1 17 4.30112 17 8.76C17 13.2189 13.5066 16.52 9 16.52C8.19053 16.52 7.41392 16.4131 6.68424 16.2125C6.5424 16.1734 6.39157 16.1845 6.25696 16.2438L4.66907 16.9448C4.25371 17.1282 3.78485 16.8328 3.77093 16.3789L3.72736 14.9558C3.722 14.7805 3.64312 14.6166 3.51245 14.4997C1.95584 13.1076 1 11.0923 1 8.76ZM6.54603 7.30105L4.19603 11.0294C3.97051 11.3872 4.41032 11.7904 4.74723 11.5347L7.27152 9.61894C7.44227 9.48934 7.67824 9.48866 7.84971 9.61726L9.71883 11.0191C10.2797 11.4398 11.0802 11.2921 11.454 10.699L13.804 6.97062C14.0295 6.61281 13.5897 6.20961 13.2528 6.46529L10.7285 8.38105C10.5577 8.51065 10.3218 8.51134 10.1503 8.3827L8.2812 6.9809C7.72032 6.56025 6.91984 6.70793 6.54603 7.30105Z" fill="#121212"/>
</svg>
