<svg width="18" height="18" viewBox="0 0 18 18" fill="none" xmlns="http://www.w3.org/2000/svg">
<path fill-rule="evenodd" clip-rule="evenodd" d="M17 9C17 13.4183 13.4183 17 9 17C4.58172 17 1 13.4183 1 9C1 4.58172 4.58172 1 9 1C13.4183 1 17 4.58172 17 9ZM14.1406 8.3565C14.2669 8.54718 14.3344 8.7708 14.3346 8.99953C14.3345 9.22531 14.2689 9.44621 14.1457 9.63543C14.0225 9.82465 13.8471 9.97405 13.6406 10.0655C13.6586 10.1816 13.6678 10.2988 13.668 10.4162C13.668 12.2112 11.58 13.6662 9.00131 13.6662C6.42265 13.6662 4.33465 12.2112 4.33465 10.4162C4.33423 10.298 4.34293 10.18 4.36065 10.0632C4.20477 9.99412 4.06593 9.89171 3.9539 9.76319C3.84186 9.63467 3.75936 9.48315 3.71219 9.31931C3.66503 9.15547 3.65435 8.98327 3.68091 8.81486C3.70746 8.64644 3.77061 8.48589 3.8659 8.34451C3.96119 8.20313 4.08632 8.08435 4.23246 7.99654C4.37861 7.90873 4.54223 7.85402 4.7118 7.83626C4.88137 7.81849 5.05277 7.83812 5.21394 7.89374C5.37511 7.94936 5.52213 8.03963 5.64465 8.1582C6.57962 7.52359 7.68136 7.17961 8.81131 7.16953L9.40465 4.37953C9.41617 4.32553 9.44865 4.27831 9.49497 4.24824C9.54128 4.21818 9.59763 4.20773 9.65165 4.2192L11.592 4.63186C11.6818 4.45003 11.8349 4.30721 12.0225 4.23017C12.2102 4.15313 12.4194 4.14715 12.6111 4.21337C12.8028 4.27958 12.9638 4.41344 13.0639 4.58985C13.164 4.76626 13.1963 4.97312 13.1548 5.17164C13.1132 5.37017 13.0007 5.54673 12.8384 5.66825C12.676 5.78977 12.4748 5.84789 12.2727 5.83172C12.0705 5.81556 11.8811 5.72621 11.7401 5.58044C11.5991 5.43466 11.5161 5.24246 11.5066 5.03986L9.77031 4.67053L9.23898 7.17053C10.3532 7.18905 11.4378 7.53306 12.359 8.1602C12.5238 8.00159 12.7316 7.89492 12.9565 7.85346C13.1815 7.81201 13.4136 7.83759 13.6242 7.92703C13.8347 8.01646 14.0143 8.16581 14.1406 8.3565ZM6.47509 9.36989C6.38352 9.50693 6.33465 9.66805 6.33465 9.83286C6.33465 10.0539 6.42245 10.2658 6.57873 10.4221C6.73501 10.5784 6.94697 10.6662 7.16798 10.6662C7.3328 10.6662 7.49392 10.6173 7.63096 10.5258C7.768 10.4342 7.87481 10.304 7.93788 10.1518C8.00095 9.99949 8.01746 9.83194 7.9853 9.67029C7.95315 9.50864 7.87378 9.36015 7.75724 9.24361C7.64069 9.12706 7.49221 9.0477 7.33056 9.01554C7.16891 8.98339 7.00135 8.99989 6.84908 9.06296C6.69681 9.12604 6.56666 9.23285 6.47509 9.36989ZM9.00231 12.6472C9.32265 12.6472 10.4126 12.6015 10.9813 12.0349C11.0024 12.0151 11.0193 11.9912 11.0309 11.9648C11.0426 11.9384 11.0489 11.9098 11.0494 11.8809C11.0498 11.852 11.0445 11.8233 11.0336 11.7965C11.0228 11.7697 11.0067 11.7454 10.9863 11.7249C10.9659 11.7044 10.9415 11.6883 10.9148 11.6774C10.888 11.6665 10.8593 11.6611 10.8304 11.6615C10.8015 11.6619 10.773 11.6681 10.7465 11.6797C10.72 11.6913 10.6962 11.7082 10.6763 11.7292C10.317 12.0879 9.54998 12.2152 9.00231 12.2152C8.45465 12.2152 7.68765 12.0879 7.32931 11.7295C7.30927 11.7095 7.28546 11.6935 7.25926 11.6827C7.23306 11.6718 7.20497 11.6662 7.1766 11.6662C7.14823 11.6662 7.12014 11.6717 7.09392 11.6826C7.06771 11.6934 7.04388 11.7093 7.02381 11.7294C7.00374 11.7494 6.98782 11.7732 6.97695 11.7994C6.96608 11.8256 6.96047 11.8537 6.96046 11.8821C6.96044 11.9104 6.96602 11.9385 6.97686 11.9648C6.9877 11.991 7.0036 12.0148 7.02365 12.0349C7.59165 12.6029 8.68198 12.6472 9.00231 12.6472ZM10.3717 10.5258C10.5087 10.6173 10.6698 10.6662 10.8346 10.6662C11.0557 10.6662 11.2676 10.5784 11.4239 10.4221C11.5802 10.2658 11.668 10.0539 11.668 9.83286C11.668 9.66805 11.6191 9.50693 11.5275 9.36989C11.436 9.23285 11.3058 9.12604 11.1536 9.06296C11.0013 8.99989 10.8337 8.98339 10.6721 9.01554C10.5104 9.0477 10.3619 9.12706 10.2454 9.24361C10.1288 9.36015 10.0495 9.50864 10.0173 9.67029C9.98517 9.83194 10.0017 9.99949 10.0647 10.1518C10.1278 10.304 10.2346 10.4342 10.3717 10.5258Z" fill="#121212"/>
</svg>
